<svg width="228" height="94" viewBox="0 0 228 94" fill="none" xmlns="http://www.w3.org/2000/svg">
<path d="M10.71 46H4.23L10.35 17.38L17.01 16.48L14.895 26.47H15.165C16.845 26.47 18.345 25.705 19.665 24.175C20.985 22.645 21.645 20.98 21.645 19.18C21.645 17.68 21.12 16.495 20.07 15.625C19.05 14.755 17.595 14.32 15.705 14.32C12.555 14.32 9.885 15.325 7.695 17.335C5.535 19.345 4.455 21.985 4.455 25.255C4.455 25.825 4.485 26.32 4.545 26.74C4.635 27.16 4.77 27.565 4.95 27.955C5.01 28.075 5.04 28.165 5.04 28.225C5.07 28.255 5.085 28.285 5.085 28.315C3.465 28.315 2.25 27.97 1.44 27.28C0.66 26.59 0.27 25.555 0.27 24.175C0.27 22.555 0.78 20.965 1.8 19.405C2.85 17.845 4.29 16.48 6.12 15.31C7.62 14.32 9.27 13.57 11.07 13.06C12.9 12.52 14.745 12.25 16.605 12.25C19.545 12.25 21.87 12.91 23.58 14.23C25.32 15.55 26.19 17.275 26.19 19.405C26.19 20.815 25.785 22.165 24.975 23.455C24.165 24.745 23.07 25.78 21.69 26.56C23.4 26.89 24.705 27.7 25.605 28.99C26.535 30.25 27 31.855 27 33.805C27 35.215 26.79 36.7 26.37 38.26C25.95 39.82 25.365 41.2 24.615 42.4C23.715 43.84 22.635 44.935 21.375 45.685C20.115 46.405 18.705 46.765 17.145 46.765C15.735 46.765 14.64 46.48 13.86 45.91C13.08 45.34 12.69 44.515 12.69 43.435C12.69 43.075 12.735 42.685 12.825 42.265C12.915 41.815 13.065 41.335 13.275 40.825C13.845 41.395 14.355 41.815 14.805 42.085C15.285 42.325 15.78 42.445 16.29 42.445C17.64 42.445 18.72 41.665 19.53 40.105C20.34 38.545 20.745 36.625 20.745 34.345C20.745 32.455 20.385 31.03 19.665 30.07C18.945 29.11 17.88 28.63 16.47 28.63C16.26 28.63 15.945 28.645 15.525 28.675C15.135 28.705 14.76 28.735 14.4 28.765L10.71 46ZM36.0795 41.905C36.8595 41.905 37.5495 41.575 38.1495 40.915C38.7795 40.225 39.2895 39.235 39.6795 37.945L42.7395 23.5H49.2195L45.9795 38.8C45.9195 39.07 45.8745 39.325 45.8445 39.565C45.8145 39.775 45.7995 40 45.7995 40.24C45.7995 40.84 45.9345 41.275 46.2045 41.545C46.5045 41.785 46.9845 41.905 47.6445 41.905C48.4245 41.905 49.1295 41.56 49.7595 40.87C50.3895 40.18 50.8995 39.205 51.2895 37.945H53.1795C52.2195 40.705 50.9745 42.79 49.4445 44.2C47.9145 45.58 46.1445 46.27 44.1345 46.27C42.8445 46.27 41.8095 45.91 41.0295 45.19C40.2495 44.44 39.7995 43.375 39.6795 41.995C38.8095 43.435 37.8195 44.515 36.7095 45.235C35.6295 45.925 34.3995 46.27 33.0195 46.27C31.5195 46.27 30.3345 45.805 29.4645 44.875C28.6245 43.915 28.2045 42.58 28.2045 40.87C28.2045 40.48 28.2345 40.045 28.2945 39.565C28.3545 39.055 28.4445 38.515 28.5645 37.945L31.6245 23.5H38.1045L34.8645 38.8C34.8045 39.04 34.7595 39.265 34.7295 39.475C34.7295 39.655 34.7295 39.85 34.7295 40.06C34.7295 40.66 34.8345 41.125 35.0445 41.455C35.2845 41.755 35.6295 41.905 36.0795 41.905ZM56.0542 46H49.5742L54.3442 23.5H60.8242L60.2392 26.29C61.5592 25.18 62.5942 24.445 63.3442 24.085C64.1242 23.695 64.9042 23.5 65.6842 23.5C66.6142 23.5 67.3642 23.83 67.9342 24.49C68.5042 25.12 68.7892 25.915 68.7892 26.875C68.7892 27.805 68.4892 28.585 67.8892 29.215C67.2892 29.845 66.5092 30.16 65.5492 30.16C65.0392 30.16 64.6342 30.04 64.3342 29.8C64.0642 29.56 63.8692 29.065 63.7492 28.315C63.6592 27.835 63.5542 27.535 63.4342 27.415C63.3142 27.265 63.1492 27.19 62.9392 27.19C62.4292 27.19 61.9492 27.295 61.4992 27.505C61.0492 27.715 60.4342 28.18 59.6542 28.9L56.0542 46ZM82.8281 25.57V25.84L83.3231 23.5H89.8031L85.3481 44.38C86.8481 43.84 88.0181 43.09 88.8581 42.13C89.7281 41.14 90.4481 39.745 91.0181 37.945H92.9081C92.2181 40.225 91.2281 42.055 89.9381 43.435C88.6781 44.815 87.0131 45.79 84.9431 46.36L84.2681 49.6C83.7281 52.12 82.7831 54.025 81.4331 55.315C80.0831 56.605 78.3281 57.25 76.1681 57.25C74.6381 57.25 73.4081 56.86 72.4781 56.08C71.5781 55.3 71.1281 54.235 71.1281 52.885C71.1281 51.415 71.7281 50.11 72.9281 48.97C74.1581 47.86 76.0031 46.93 78.4631 46.18L79.0031 43.795C78.2231 44.605 77.3831 45.22 76.4831 45.64C75.5831 46.06 74.6231 46.27 73.6031 46.27C71.7431 46.27 70.2731 45.64 69.1931 44.38C68.1431 43.12 67.6181 41.335 67.6181 39.025C67.6181 37.345 67.8731 35.59 68.3831 33.76C68.8931 31.93 69.5981 30.265 70.4981 28.765C71.6081 26.995 72.8981 25.645 74.3681 24.715C75.8381 23.755 77.4431 23.275 79.1831 23.275C80.3531 23.275 81.2531 23.485 81.8831 23.905C82.5131 24.295 82.8281 24.85 82.8281 25.57ZM82.4231 27.73C82.3931 27.25 82.2131 26.86 81.8831 26.56C81.5531 26.23 81.1181 26.065 80.5781 26.065C78.9281 26.065 77.4581 27.445 76.1681 30.205C74.9081 32.965 74.2781 35.695 74.2781 38.395C74.2781 39.565 74.4431 40.45 74.7731 41.05C75.1031 41.62 75.6881 41.905 76.5281 41.905C77.2481 41.905 77.9531 41.575 78.6431 40.915C79.3631 40.255 79.8581 39.415 80.1281 38.395L82.4231 27.73ZM78.0131 48.43C76.5131 49 75.4031 49.585 74.6831 50.185C73.9631 50.815 73.6031 51.505 73.6031 52.255C73.6031 52.645 73.7531 52.99 74.0531 53.29C74.3531 53.59 74.7131 53.74 75.1331 53.74C75.6431 53.74 76.1381 53.38 76.6181 52.66C77.0981 51.94 77.4731 50.965 77.7431 49.735L78.0131 48.43ZM107.526 27.415C107.526 29.905 106.506 32.08 104.466 33.94C102.426 35.77 99.9957 36.76 97.1757 36.91C97.1457 37.42 97.1157 37.81 97.0857 38.08C97.0857 38.32 97.0857 38.53 97.0857 38.71C97.0857 40.09 97.3107 41.065 97.7607 41.635C98.2407 42.205 99.0957 42.49 100.326 42.49C101.736 42.49 103.026 42.175 104.196 41.545C105.396 40.885 106.761 39.685 108.291 37.945H109.821C108.081 40.765 106.191 42.865 104.151 44.245C102.111 45.595 99.8757 46.27 97.4457 46.27C95.1357 46.27 93.3807 45.67 92.1807 44.47C91.0107 43.27 90.4257 41.485 90.4257 39.115C90.4257 37.405 90.6957 35.59 91.2357 33.67C91.7757 31.75 92.4957 30.04 93.3957 28.54C94.5057 26.74 95.8257 25.39 97.3557 24.49C98.9157 23.56 100.656 23.095 102.576 23.095C104.226 23.095 105.456 23.455 106.266 24.175C107.106 24.865 107.526 25.945 107.526 27.415ZM102.936 25.48C101.916 25.48 100.881 26.395 99.8307 28.225C98.8107 30.025 98.0457 32.2 97.5357 34.75C99.2757 34.63 100.791 33.835 102.081 32.365C103.401 30.865 104.061 29.185 104.061 27.325C104.061 26.695 103.971 26.23 103.791 25.93C103.611 25.63 103.326 25.48 102.936 25.48ZM113.095 46H106.615L111.385 23.5H117.865L117.28 26.29C118.6 25.18 119.635 24.445 120.385 24.085C121.165 23.695 121.945 23.5 122.725 23.5C123.655 23.5 124.405 23.83 124.975 24.49C125.545 25.12 125.83 25.915 125.83 26.875C125.83 27.805 125.53 28.585 124.93 29.215C124.33 29.845 123.55 30.16 122.59 30.16C122.08 30.16 121.675 30.04 121.375 29.8C121.105 29.56 120.91 29.065 120.79 28.315C120.7 27.835 120.595 27.535 120.475 27.415C120.355 27.265 120.19 27.19 119.98 27.19C119.47 27.19 118.99 27.295 118.54 27.505C118.09 27.715 117.475 28.18 116.695 28.9L113.095 46Z" fill="black"/>
<path d="M132.084 20.305C132.084 17.995 133.074 16.075 135.054 14.545C137.064 13.015 139.539 12.25 142.479 12.25C144.759 12.25 146.529 12.715 147.789 13.645C149.079 14.575 149.724 15.91 149.724 17.65C149.724 19 149.379 20.095 148.689 20.935C148.029 21.775 147.144 22.195 146.034 22.195C145.614 22.195 145.224 22.12 144.864 21.97C144.534 21.82 144.234 21.58 143.964 21.25C144.564 20.89 145.044 20.35 145.404 19.63C145.794 18.91 145.989 18.16 145.989 17.38C145.989 16.42 145.704 15.685 145.134 15.175C144.564 14.635 143.739 14.365 142.659 14.365C141.369 14.365 140.349 14.725 139.599 15.445C138.879 16.165 138.519 17.17 138.519 18.46C138.519 19.51 138.789 20.515 139.329 21.475C139.869 22.405 141.039 23.665 142.839 25.255C145.209 27.325 146.769 29.125 147.519 30.655C148.269 32.155 148.644 33.835 148.644 35.695C148.644 39.115 147.459 41.845 145.089 43.885C142.719 45.925 139.689 46.945 135.999 46.945C133.059 46.945 130.734 46.27 129.024 44.92C127.314 43.57 126.459 41.665 126.459 39.205C126.459 37.045 127.104 35.275 128.394 33.895C129.684 32.515 131.244 31.825 133.074 31.825C134.214 31.825 135.144 32.095 135.864 32.635C136.584 33.145 136.974 33.865 137.034 34.795C135.474 34.795 134.199 35.17 133.209 35.92C132.249 36.67 131.769 37.705 131.769 39.025C131.769 40.285 132.159 41.32 132.939 42.13C133.719 42.94 134.769 43.345 136.089 43.345C137.649 43.345 138.909 42.805 139.869 41.725C140.829 40.645 141.309 39.19 141.309 37.36C141.309 35.95 140.994 34.6 140.364 33.31C139.734 32.02 138.429 30.295 136.449 28.135C134.649 26.215 133.464 24.715 132.894 23.635C132.354 22.525 132.084 21.415 132.084 20.305ZM150.548 40.87C150.548 40.48 150.578 40.045 150.638 39.565C150.698 39.055 150.788 38.515 150.908 37.945L155.723 15.4L162.383 14.5L157.208 38.8C157.148 39.07 157.103 39.325 157.073 39.565C157.043 39.775 157.028 40 157.028 40.24C157.028 40.84 157.163 41.275 157.433 41.545C157.733 41.785 158.213 41.905 158.873 41.905C159.713 41.905 160.508 41.545 161.258 40.825C162.008 40.075 162.563 39.115 162.923 37.945H164.813C163.853 40.675 162.563 42.745 160.943 44.155C159.323 45.565 157.463 46.27 155.363 46.27C153.863 46.27 152.678 45.805 151.808 44.875C150.968 43.915 150.548 42.58 150.548 40.87ZM176.388 25.57V25.885L176.883 23.5H183.363L180.123 38.8C180.063 39.07 180.018 39.325 179.988 39.565C179.958 39.775 179.943 40 179.943 40.24C179.943 40.9 180.093 41.395 180.393 41.725C180.693 42.025 181.158 42.175 181.788 42.175C182.568 42.175 183.273 41.815 183.903 41.095C184.533 40.345 185.043 39.295 185.433 37.945H187.323C186.363 40.705 185.118 42.79 183.588 44.2C182.058 45.58 180.288 46.27 178.278 46.27C176.988 46.27 175.953 45.91 175.173 45.19C174.423 44.47 173.988 43.45 173.868 42.13C172.938 43.51 171.903 44.545 170.763 45.235C169.653 45.925 168.453 46.27 167.163 46.27C165.303 46.27 163.833 45.64 162.753 44.38C161.703 43.12 161.178 41.335 161.178 39.025C161.178 37.345 161.433 35.59 161.943 33.76C162.453 31.93 163.158 30.265 164.058 28.765C165.168 26.995 166.458 25.645 167.928 24.715C169.398 23.755 171.003 23.275 172.743 23.275C173.913 23.275 174.813 23.485 175.443 23.905C176.073 24.295 176.388 24.85 176.388 25.57ZM175.983 27.775C175.983 27.325 175.818 26.935 175.488 26.605C175.158 26.245 174.708 26.065 174.138 26.065C172.488 26.065 171.018 27.445 169.728 30.205C168.468 32.965 167.838 35.695 167.838 38.395C167.838 39.565 168.003 40.45 168.333 41.05C168.663 41.62 169.248 41.905 170.088 41.905C170.868 41.905 171.618 41.53 172.338 40.78C173.088 40.03 173.583 39.085 173.823 37.945L175.983 27.775ZM199.491 38.485C199.491 38.845 199.476 39.16 199.446 39.43C199.416 39.7 199.371 39.955 199.311 40.195C199.911 39.835 200.496 39.46 201.066 39.07C201.636 38.68 202.131 38.305 202.551 37.945H204.441C203.511 39.025 202.476 40.03 201.336 40.96C200.226 41.86 198.966 42.73 197.556 43.57C196.746 44.44 195.711 45.115 194.451 45.595C193.191 46.045 191.871 46.27 190.491 46.27C188.481 46.27 186.876 45.73 185.676 44.65C184.506 43.54 183.921 42.16 183.921 40.51C183.921 39.58 184.146 38.74 184.596 37.99C185.046 37.21 185.616 36.655 186.306 36.325C187.326 34.495 188.271 32.545 189.141 30.475C190.041 28.375 190.941 25.885 191.841 23.005L198.501 22.105C198.591 24.355 198.696 26.41 198.816 28.27C198.936 30.13 199.086 32.155 199.266 34.345C199.356 35.605 199.416 36.49 199.446 37C199.476 37.51 199.491 38.005 199.491 38.485ZM192.111 27.865C191.721 29.095 191.241 30.385 190.671 31.735C190.131 33.055 189.396 34.6 188.466 36.37C188.796 36.52 189.051 36.73 189.231 37C189.411 37.27 189.501 37.585 189.501 37.945C189.501 38.515 189.306 39.025 188.916 39.475C188.526 39.925 188.061 40.15 187.521 40.15C187.221 40.15 186.966 40.105 186.756 40.015C186.546 39.895 186.396 39.745 186.306 39.565C186.306 40.675 186.516 41.485 186.936 41.995C187.386 42.475 188.091 42.715 189.051 42.715C190.281 42.715 191.241 42.355 191.931 41.635C192.621 40.915 192.966 39.88 192.966 38.53C192.966 38.11 192.951 37.69 192.921 37.27C192.891 36.82 192.831 36.085 192.741 35.065C192.591 33.655 192.471 32.41 192.381 31.33C192.291 30.25 192.201 29.095 192.111 27.865ZM213.874 41.185C213.874 40.645 213.934 39.97 214.054 39.16C214.204 38.35 214.489 37.06 214.909 35.29C215.329 33.58 215.599 32.35 215.719 31.6C215.839 30.85 215.899 30.22 215.899 29.71C215.899 28.96 215.749 28.39 215.449 28C215.179 27.61 214.774 27.415 214.234 27.415C213.514 27.415 212.809 27.85 212.119 28.72C211.459 29.56 211.024 30.445 210.814 31.375L207.709 46H201.229L207.754 15.4L214.414 14.5L211.984 25.84C212.734 25 213.544 24.37 214.414 23.95C215.284 23.53 216.229 23.32 217.249 23.32C218.839 23.32 220.069 23.755 220.939 24.625C221.809 25.495 222.244 26.755 222.244 28.405C222.244 29.095 222.154 29.92 221.974 30.88C221.824 31.81 221.509 33.25 221.029 35.2C220.639 36.73 220.384 37.81 220.264 38.44C220.144 39.07 220.084 39.595 220.084 40.015C220.084 40.645 220.234 41.125 220.534 41.455C220.834 41.755 221.284 41.905 221.884 41.905C222.634 41.905 223.279 41.65 223.819 41.14C224.359 40.63 224.974 39.565 225.664 37.945H227.554C226.594 40.735 225.424 42.82 224.044 44.2C222.694 45.58 221.074 46.27 219.184 46.27C217.504 46.27 216.199 45.82 215.269 44.92C214.339 43.99 213.874 42.745 213.874 41.185Z" fill="#FF9900"/>
<path d="M5 92.7071C19.5 83.3738 80.6 64.1071 221 77.7071" stroke="#EA0000" stroke-width="2"/>
</svg>
